<svg width="384" height="220" viewBox="0 0 384 220" fill="none" xmlns="http://www.w3.org/2000/svg">
<mask id="mask0" mask-type="alpha" maskUnits="userSpaceOnUse" x="0" y="0" width="384" height="220">
<rect width="384" height="220" fill="url(#paint0_linear)"/>
</mask>
<g mask="url(#mask0)">
<rect width="384" height="220" fill="white"/>
<path d="M288.48 162.014C283.514 168.575 275.449 174.478 263.598 178.784C259.335 180.347 255.552 182.276 252.098 184.418C246.979 187.602 242.668 191.366 238.6 195.01C219.987 212.011 208.009 228.763 159.49 195.643C140.208 182.499 133.135 188.741 108.718 184.718C107.965 184.561 107.272 184.526 106.52 184.369C99.7764 183.17 94.1556 181.045 89.4438 178.325C83.5025 174.781 79.1063 170.255 75.8612 165.015C69.6726 154.538 68.1172 141.414 69.3626 128.645C69.7611 123.947 70.5513 119.281 71.6713 114.83C72.2337 112.302 72.9457 109.927 73.5959 107.732C76.0379 100.006 79.0972 94.3037 82.3583 89.7787C82.7546 89.2092 83.2412 88.6706 83.6067 88.1913C84.0933 87.6527 84.4896 87.0832 84.9762 86.5446C96.1077 74.0353 109.53 73.0878 114.524 59.0827C127.776 22.117 158.018 25.3126 178.726 37.2327C222.663 62.5397 227.668 43.2 259.734 59.9127C318.371 90.5515 267.225 100.45 288.081 124.307C296.418 133.807 298.439 149.104 288.48 162.014Z" fill="#C0B1FF" fill-opacity="0.5"/>
<path d="M78.1315 197.999H172.435V169.957H77.2883C70.6828 169.957 65.3423 175.285 65.3423 181.875V185.38C65.3423 192.25 71.1045 197.999 78.1315 197.999Z" fill="#662ABC"/>
<path d="M167.094 197.999H274.326V169.957H166.813C160.067 169.957 154.586 175.425 154.586 182.155V185.66C154.586 192.39 160.207 197.999 167.094 197.999Z" fill="white"/>
<path d="M147.559 198H278.121C279.105 198 279.948 197.158 279.948 196.177V195.616C279.948 194.635 279.105 193.793 278.121 193.793H147.559C146.575 193.793 145.732 194.635 145.732 195.616V196.177C145.591 197.158 146.434 198 147.559 198Z" fill="#662ABC"/>
<path d="M147.559 174.024H278.121C279.105 174.024 279.948 173.182 279.948 172.201V171.64C279.948 170.659 279.105 169.817 278.121 169.817H147.559C146.575 169.817 145.732 170.659 145.732 171.64V172.201C145.591 173.322 146.434 174.024 147.559 174.024Z" fill="#662ABC"/>
<path d="M274.327 183.979L259.851 184.399L274.327 184.68V183.979Z" fill="#EBE6FF"/>
<path d="M274.327 177.529L239.894 177.949L274.327 178.23V177.529Z" fill="#EBE6FF"/>
<path d="M240.175 177.809C240.175 177.809 241.721 179.071 242.143 181.034C242.283 181.314 242.283 181.735 242.283 182.156C242.424 184.819 242.283 190.708 242.283 190.708L246.64 187.764L250.997 190.708V182.576C250.997 181.034 250.575 179.632 249.873 178.65C249.591 178.23 249.17 177.809 248.608 177.809H240.175Z" fill="#9150FF"/>
<path d="M240.175 177.809C240.175 177.809 241.721 179.071 242.143 181.034L250.856 181.174C250.856 181.174 250.575 178.37 248.748 177.809H240.175Z" fill="#662ABC"/>
<path d="M164.986 169.956H68.7151V128.735H165.407C175.245 128.735 183.397 136.727 183.397 146.682V151.729C183.397 161.824 175.105 169.956 164.986 169.956Z" fill="white"/>
<path d="M175.948 144.719V153.553C175.948 157.338 174.121 160.563 171.591 162.386C170.326 163.227 168.78 163.788 167.234 163.788H65.904C64.7797 163.788 63.7959 164.91 63.7959 166.312V167.293C63.7959 168.695 64.7797 169.817 65.904 169.817H240.878C245.937 169.817 250.294 166.873 252.964 162.246C254.651 159.441 255.634 155.936 255.634 152.151V145.14C255.634 142.616 255.072 140.093 254.229 137.989C251.98 132.381 247.202 128.595 241.721 128.595H65.904C64.7797 128.595 63.7959 129.717 63.7959 131.119V132.101C63.7959 133.503 64.7797 134.624 65.904 134.624H167.515C169.904 134.624 172.153 135.886 173.699 137.849C175.104 139.812 175.948 142.196 175.948 144.719Z" fill="#00C6BC"/>
<path d="M63.7959 166.31V167.292C63.7959 168.694 64.7797 169.816 65.904 169.816H240.878C245.937 169.816 250.294 166.871 252.964 162.244H171.45C170.185 163.086 168.639 163.646 167.094 163.646H65.904C64.7797 163.787 63.7959 164.908 63.7959 166.31Z" fill="#00A599"/>
<path d="M68.7151 149.346L81.7854 150.047L68.7151 150.468V149.346Z" fill="#EBE6FF"/>
<path d="M68.7151 139.813L99.6341 140.514L68.7151 140.934V139.813Z" fill="#EBE6FF"/>
<path d="M99.3528 140.372C99.3528 140.372 97.2447 141.634 96.6825 143.878C96.542 144.298 96.542 144.719 96.4015 145.139C96.2609 147.944 96.4015 154.393 96.4015 154.393L90.3582 151.168L84.3149 154.393V145.7C84.3149 144.018 84.8771 142.475 85.7204 141.354C86.142 140.793 86.7041 140.513 87.4068 140.513H99.3528V140.372Z" fill="#340E70"/>
<path d="M99.3531 140.372C99.3531 140.372 97.245 141.634 96.6828 143.877L84.5963 144.017C84.5963 144.017 85.0179 140.933 87.5477 140.372H99.3531Z" fill="#662ABC"/>
<path d="M174.402 119.482C178.197 126.072 182.834 128.596 182.834 128.596L202.651 128.736C202.651 128.736 171.451 114.434 174.402 119.482Z" fill="#340E70"/>
<path d="M189.159 170.378C189.721 170.939 189.721 171.64 189.44 172.341C189.018 173.603 187.332 175.145 185.505 176.547C185.224 176.688 185.083 176.968 184.943 177.108L184.802 177.248C184.802 177.248 184.662 177.248 184.662 177.389C182.975 178.931 183.537 179.352 180.586 182.436C177.072 185.941 174.683 186.082 173.98 185.661C173.418 185.381 174.543 183.418 175.948 181.314C175.948 181.174 176.089 181.174 176.089 181.034C176.229 180.754 176.37 180.473 176.651 180.193C178.197 177.669 177.775 176.407 177.494 172.621C177.213 169.537 172.716 155.095 172.716 155.095L179.321 153.974C179.321 153.974 181.289 165.331 183.397 167.153C184.521 168.135 185.926 168.135 187.051 168.836C187.191 168.836 187.191 168.976 187.332 168.976C188.035 169.397 188.737 169.817 189.159 170.378Z" fill="#FFB27D"/>
<path d="M189.159 170.378C189.721 170.939 189.721 171.64 189.44 172.341C188.878 173.603 187.332 175.005 185.505 176.548C185.224 176.688 185.083 176.968 184.943 177.109L184.802 177.249C184.802 177.249 184.662 177.249 184.662 177.389C182.975 178.931 183.537 179.352 180.586 182.437C177.072 185.942 174.683 186.082 173.981 185.661C173.418 185.381 174.543 183.418 175.948 181.315C176.651 181.034 179.743 179.773 182.132 176.828C184.24 174.164 185.645 170.799 187.051 168.836C187.191 168.836 187.191 168.976 187.332 168.976C188.035 169.397 188.737 169.818 189.159 170.378Z" fill="#340E70"/>
<path d="M135.753 165.892C135.331 167.995 132.38 167.574 129.148 166.733C125.915 165.892 126.618 166.873 121.98 166.312C117.342 165.751 115.937 164.069 115.796 163.368C115.656 162.807 117.904 162.527 120.434 162.246C120.715 162.246 120.996 162.246 121.418 162.106C124.229 161.826 126.196 160.003 128.726 158.601C131.115 157.199 134.769 151.59 134.769 151.59L141.094 152.151C141.094 152.151 137.721 157.199 136.456 159.442C135.753 160.704 135.753 162.386 135.753 163.789C135.753 164.49 135.894 165.191 135.753 165.892Z" fill="#FFB27D"/>
<path d="M129.148 166.731C125.915 165.89 126.618 166.872 121.98 166.311C117.342 165.75 115.937 164.067 115.796 163.366C115.656 162.806 117.904 162.525 120.434 162.245C120.434 162.245 123.245 164.208 127.04 164.348C130.131 164.488 133.504 163.507 135.753 163.647C135.753 164.348 135.894 165.049 135.753 165.75C135.331 167.993 132.38 167.573 129.148 166.731Z" fill="#340E70"/>
<path d="M160.348 125.511L166.251 141.495L173.84 162.386C173.84 162.386 175.948 162.666 177.916 162.105C179.743 161.545 181.991 160.142 181.991 160.142C181.991 160.142 180.024 137.709 176.089 124.81C175.105 121.445 173.98 118.781 172.716 117.379C166.532 109.948 160.348 125.511 160.348 125.511Z" fill="#340E70"/>
<path d="M166.672 100.134C170.607 98.8718 181.71 100.554 192.813 102.798L195.202 99.012L219.375 97.3295C219.375 97.3295 227.245 114.996 222.748 126.213C222.045 127.895 220.499 128.596 218.391 128.596C218.391 128.596 203.915 128.877 199.278 128.877C187.332 128.736 173.98 120.464 172.153 120.043C169.342 119.483 168.078 125.091 165.267 130.98C162.456 136.869 138.423 157.059 138.423 157.059C138.423 157.059 134.769 157.059 133.223 156.498C131.537 155.937 130.975 155.096 130.975 155.096C130.975 155.096 157.818 102.938 166.672 100.134Z" fill="#662ABC"/>
<path d="M195.624 65.7818C204.197 70.5489 221.483 80.5037 221.624 80.3635C221.624 80.3635 227.948 82.8873 231.602 80.5037C237.646 76.5779 241.019 65.7818 230.056 56.3877C224.575 51.7608 220.64 50.4989 220.078 43.208C219.797 39.142 214.316 25.8221 205.181 27.0839C204.478 27.2242 203.635 27.2242 202.932 27.2242C201.808 27.2242 200.121 27.3644 198.294 28.3458C193.094 31.2902 182.694 63.959 195.624 65.7818Z" fill="#340E70"/>
<path d="M202.791 61.857C202.791 61.857 207.007 63.3993 209.818 62.1374C212.489 61.0157 214.597 56.529 214.597 56.529C213.332 56.529 212.067 55.4073 211.083 48.3969L210.521 48.5371L201.807 51.6217C201.807 51.6217 202.37 54.4259 202.791 57.0898C203.072 59.4734 203.213 61.5765 202.791 61.857Z" fill="#FFB27D"/>
<path d="M201.807 51.7608C201.807 51.7608 202.229 53.7237 202.651 56.5279C207.71 55.6866 209.818 51.3401 210.521 48.6761L201.807 51.7608Z" fill="#ED975D"/>
<path d="M200.402 54.4252C200.402 54.4252 212.348 52.8829 211.364 45.4518C210.24 38.0207 211.083 32.8329 203.494 33.534C195.764 34.235 194.78 37.1794 194.499 39.8434C194.218 42.3672 197.31 54.7056 200.402 54.4252Z" fill="#FFB27D"/>
<path d="M194.921 35.7778C194.921 35.7778 202.51 42.3676 207.71 42.9284C212.91 43.4893 214.878 41.8068 214.878 41.8068C214.878 41.8068 211.786 39.283 209.959 35.0767C209.397 33.8148 208.273 32.9736 207.008 32.8334C203.354 32.6932 196.186 32.5529 194.921 35.7778Z" fill="#340E70"/>
<path d="M199.7 35.2169C199.7 35.2169 197.17 37.6004 196.327 39.5634C195.483 41.3861 195.202 45.5924 195.905 47.2749C195.905 47.2749 191.97 39.5634 194.218 35.7777C196.608 31.7116 199.7 35.2169 199.7 35.2169Z" fill="#340E70"/>
<path d="M192.532 79.9425C192.672 104.619 192.532 99.5718 195.061 101.815C195.764 102.376 197.451 102.797 199.84 102.937C207.288 103.498 220.359 102.376 220.78 100.974C222.467 96.2068 221.343 94.6645 222.748 87.2334C222.888 86.3921 223.029 85.5509 223.31 84.7096C224.575 79.6621 225.699 77.8393 221.483 69.7072C217.688 62.2761 213.753 56.2471 213.472 56.3873C203.353 62.4163 202.51 57.2285 202.51 57.2285C202.51 57.2285 192.532 67.8845 192.532 79.9425Z" fill="white"/>
<path d="M166.251 141.495L173.84 162.386C173.84 162.386 175.948 162.666 177.916 162.106C179.743 161.545 181.991 160.143 181.991 160.143C181.991 160.143 180.024 137.709 176.089 124.81L166.251 141.495Z" fill="#662ABC"/>
<path d="M202.791 57.2284C202.791 57.2284 192.391 58.9109 191.126 63.3976C189.861 67.8843 182.553 94.1035 182.553 94.1035C182.553 94.1035 187.894 95.0849 190.283 92.7014C192.813 90.3178 198.997 70.1277 198.997 70.1277L202.791 57.2284Z" fill="white"/>
<path d="M199.98 102.797C207.429 103.358 220.499 102.236 220.921 100.834C222.608 95.9266 221.483 94.3843 222.889 86.813L219.375 76.2972C219.375 76.2972 219.937 87.9346 216.564 91.0192C213.191 94.1038 202.932 96.7678 201.386 99.4318C200.683 100.694 200.121 101.815 199.98 102.797Z" fill="#EBE6FF"/>
<path d="M208.553 97.1885C208.553 97.1885 201.245 95.506 200.121 96.207C198.997 96.9081 196.045 99.1514 195.624 99.9927C195.202 100.834 198.294 99.4318 199.278 99.1514C199.84 99.0112 201.526 99.572 202.37 99.8525C205.883 100.974 207.991 100.413 207.991 100.413L208.553 97.1885Z" fill="#FFB27D"/>
<path d="M213.753 56.248C213.753 56.248 223.591 56.9491 226.964 61.7162C231.743 68.4463 241.018 96.9088 235.537 100.694C229.353 104.901 207.57 101.676 207.57 101.676C207.57 101.676 206.867 98.3109 207.851 96.6284C208.834 94.9459 225.278 92.4221 225.98 91.7211C226.683 91.02 216.564 76.9991 216.705 74.6155C216.705 72.3721 213.753 56.248 213.753 56.248Z" fill="white"/>
<path d="M199.699 98.1702C199.699 98.1702 198.153 100.133 197.591 100.414C197.029 100.694 196.748 100.554 196.748 100.554L197.732 98.7311L199.699 98.1702Z" fill="#FFAE73"/>
<path d="M199.98 96.2076L195.483 98.3108C195.483 98.3108 195.623 98.5912 196.186 98.5912C196.748 98.5912 198.153 98.0304 198.153 98.0304L199.98 96.2076Z" fill="#FFAE73"/>
<path d="M197.169 103.077L161.894 102.796L151.494 76.4369L186.629 76.5771L197.169 103.077Z" fill="#00C6BC"/>
<path d="M161.472 101.815L207.991 102.096V103.077L161.894 102.797L161.472 101.815Z" fill="#00A599"/>
<path d="M170.889 89.7573C170.608 88.7758 171.17 88.0748 172.154 88.0748C173.137 88.0748 173.981 88.7758 174.262 89.7573C174.543 90.7387 173.981 91.4398 172.997 91.4398C172.013 91.4398 171.17 90.5985 170.889 89.7573Z" fill="white"/>
</g>
<defs>
<linearGradient id="paint0_linear" x1="6.64485" y1="117.972" x2="373.07" y2="117.972" gradientUnits="userSpaceOnUse">
<stop stop-color="#562B98"/>
<stop offset="1" stop-color="#BD74F4"/>
</linearGradient>
</defs>
</svg>
