<svg width="384" height="220" viewBox="0 0 384 220" fill="none" xmlns="http://www.w3.org/2000/svg">
<mask id="mask0" mask-type="alpha" maskUnits="userSpaceOnUse" x="0" y="0" width="384" height="220">
<rect width="384" height="220" fill="url(#paint0_linear)"/>
</mask>
<g mask="url(#mask0)">
<rect width="384" height="220" fill="white"/>
<path d="M139.825 195.005C101.782 181.7 119.378 159.229 84.4311 146.168C-3.95411 112.989 61.7035 36.4891 136.403 46.0617C147.075 47.4408 154.651 46.4673 161.005 44.6826C168.417 42.6545 174.12 39.4906 180.962 37.6248C184.628 36.9758 188.783 36.4891 193.182 36.1646C204.831 35.5156 218.923 36.6513 234.238 42.0055C272.199 55.3909 254.685 77.781 289.55 90.8419C377.935 124.022 312.359 200.521 237.578 190.949C226.907 189.569 219.331 190.543 212.977 192.328C205.564 194.356 199.861 197.601 192.937 199.385C189.271 200.034 185.28 200.521 180.8 200.765C169.232 201.576 155.139 200.44 139.825 195.005Z" fill="#DCD4FF"/>
<path d="M176.772 -1H174.247V58.2162H176.772V-1Z" fill="white"/>
<path d="M235.312 -1H232.787V58.2162H235.312V-1Z" fill="white"/>
<path d="M285.358 79.5339H219.012V82.0554H285.358V79.5339Z" fill="white"/>
<path d="M191.158 -1H188.633V19.0189H204.244V50.2698H206.769V16.4974H191.158V-1Z" fill="white"/>
<path d="M285.434 36.5926V34.0712H265.385V49.6584H234.011V52.1799H267.91V36.5926H285.434Z" fill="white"/>
<path d="M242.811 195.512H245.413V169.39H236.154V153.421H233.628V171.988H242.811V195.512Z" fill="white"/>
<path d="M160.243 -1V14.5108H145.321V34.6826H147.923V17.1087H162.768V-1H160.243Z" fill="white"/>
<path d="M143.179 140.279H108.514V125.379H40.3045V122.858H111.116V137.757H143.179V140.279Z" fill="white"/>
<path d="M143.179 79.152H108.514V94.0515H40V96.573H111.116V81.6734H143.179V79.152Z" fill="white"/>
<path d="M285.434 123.621H282.909V110.326C277.476 110.326 256.968 110.479 253.601 110.326L253.677 107.805C257.427 107.958 283.904 107.805 284.21 107.805H285.511V123.621H285.434Z" fill="white"/>
<path d="M176.16 181.462H166.977V178.941H173.635C173.635 173.516 173.481 153.039 173.635 149.677L176.16 149.753C176.007 153.497 176.16 179.934 176.16 180.24V181.462Z" fill="white"/>
<path d="M220.007 181.463H204.167V180.164C204.167 179.934 204.32 153.421 204.167 149.677L206.692 149.6C206.845 152.962 206.692 173.44 206.692 178.865H220.007V181.463Z" fill="white"/>
<path d="M339 137.375H243.729V139.897H339V137.375Z" fill="white"/>
<path d="M146.622 49.7349H90.9136V52.2563H146.622V49.7349Z" fill="white"/>
<path d="M132.618 108.187H41.6523V110.708H132.618V108.187Z" fill="white"/>
<path d="M147.846 139.82H145.321V199.103H147.846V139.82Z" fill="white"/>
<path d="M154.887 27.653H137.745V38.1208H154.887V27.653Z" fill="#9150FF"/>
<path d="M184.118 27.653H166.977V38.1208H184.118V27.653Z" fill="#9150FF"/>
<path d="M213.426 27.653H196.285V38.1208H213.426V27.653Z" fill="#9150FF"/>
<path d="M242.658 27.653H225.517V38.1208H242.658V27.653Z" fill="#9150FF"/>
<path d="M154.887 151.51H137.745V161.978H154.887V151.51Z" fill="#662ABC"/>
<path d="M184.118 151.51H166.977V161.978H184.118V151.51Z" fill="#662ABC"/>
<path d="M213.426 151.51H196.285V161.978H213.426V151.51Z" fill="#662ABC"/>
<path d="M242.658 151.51H225.517V161.978H242.658V151.51Z" fill="#662ABC"/>
<path d="M257.427 42.3998H246.943V59.5152H257.427V42.3998Z" fill="#662ABC"/>
<path d="M257.427 71.6642H246.943V88.7796H257.427V71.6642Z" fill="#662ABC"/>
<path d="M257.427 100.852H246.943V117.967H257.427V100.852Z" fill="#662ABC"/>
<path d="M257.427 130.116H246.943V147.232H257.427V130.116Z" fill="#662ABC"/>
<path d="M133.384 42.3998H122.9V59.5152H133.384V42.3998Z" fill="#9150FF"/>
<path d="M133.384 71.6642H122.9V88.7796H133.384V71.6642Z" fill="#9150FF"/>
<path d="M133.384 100.852H122.9V117.967H133.384V100.852Z" fill="#9150FF"/>
<path d="M133.384 130.116H122.9V147.232H133.384V130.116Z" fill="#9150FF"/>
<path d="M252.3 32.8488H128.18V156.783H252.3V32.8488Z" fill="white"/>
<path d="M239.521 45.6089H140.883V144.099H239.521V45.6089Z" fill="#00C6BC"/>
<path d="M163.074 55.2363H150.984V67.3088H163.074V55.2363Z" fill="white"/>
<path d="M179.68 55.2363H167.589V67.3088H179.68V55.2363Z" fill="white"/>
<path d="M196.209 55.2363H184.118V67.3088H196.209V55.2363Z" fill="white"/>
<path d="M212.814 55.2363H200.724V67.3088H212.814V55.2363Z" fill="white"/>
<path d="M229.42 55.2363H217.329V67.3088H229.42V55.2363Z" fill="white"/>
<path d="M163.074 72.0461H150.984V84.1186H163.074V72.0461Z" fill="white"/>
<path d="M179.68 72.0461H167.589V84.1186H179.68V72.0461Z" fill="white"/>
<path d="M196.209 72.0461H184.118V84.1186H196.209V72.0461Z" fill="white"/>
<path d="M212.814 72.0461H200.724V84.1186H212.814V72.0461Z" fill="white"/>
<path d="M229.42 72.0461H217.329V84.1186H229.42V72.0461Z" fill="white"/>
<path d="M163.074 88.7794H150.984V100.852H163.074V88.7794Z" fill="white"/>
<path d="M179.68 88.7794H167.589V100.852H179.68V88.7794Z" fill="white"/>
<path d="M196.209 88.7794H184.118V100.852H196.209V88.7794Z" fill="white"/>
<path d="M212.814 88.7794H200.724V100.852H212.814V88.7794Z" fill="white"/>
<path d="M229.42 88.7794H217.329V100.852H229.42V88.7794Z" fill="white"/>
<path d="M163.074 105.513H150.984V117.585H163.074V105.513Z" fill="white"/>
<path d="M179.68 105.513H167.589V117.585H179.68V105.513Z" fill="white"/>
<path d="M196.209 105.513H184.118V117.585H196.209V105.513Z" fill="white"/>
<path d="M212.814 105.513H200.724V117.585H212.814V105.513Z" fill="white"/>
<path d="M229.42 105.513H217.329V117.585H229.42V105.513Z" fill="white"/>
<path d="M163.074 122.323H150.984V134.395H163.074V122.323Z" fill="white"/>
<path d="M179.68 122.323H167.589V134.395H179.68V122.323Z" fill="white"/>
<path d="M196.209 122.323H184.118V134.395H196.209V122.323Z" fill="white"/>
<path d="M212.814 122.323H200.724V134.395H212.814V122.323Z" fill="white"/>
<path d="M229.42 122.323H217.329V134.395H229.42V122.323Z" fill="white"/>
<path d="M168.508 178.941H165.982V203.076H168.508V178.941Z" fill="white"/>
<path d="M219.931 178.941H217.406V193.076H219.931V178.941Z" fill="white"/>
<path d="M329.894 121.1H282.909V123.622H329.894V121.1Z" fill="white"/>
<path d="M93.4388 49.7349H90.9136V73.8798H93.4388V49.7349Z" fill="white"/>
<path d="M93.4962 73.8451V71.3236L51.4645 71.3236V73.8451L93.4962 73.8451Z" fill="white"/>
</g>
<defs>
<linearGradient id="paint0_linear" x1="6.64485" y1="117.972" x2="373.07" y2="117.972" gradientUnits="userSpaceOnUse">
<stop stop-color="#562B98"/>
<stop offset="1" stop-color="#BD74F4"/>
</linearGradient>
</defs>
</svg>
