<svg width="345" height="203" viewBox="0 0 345 203" fill="none" xmlns="http://www.w3.org/2000/svg">
<path d="M128.384 196.702C86.3604 186.004 102.335 157.31 63.6694 146.412C-34.3554 119.017 26.2748 20.2357 106.964 21.7354C118.491 21.9354 126.478 19.8358 132.922 16.9363C140.546 13.537 146.264 9.03784 153.344 6.03841C157.156 4.73866 161.513 3.63887 166.232 2.73904C178.576 0.439479 193.734 -0.0604258 210.616 4.23875C252.64 14.9367 236.665 43.6312 275.331 54.5292C373.355 81.9239 312.725 180.705 232.036 179.205C220.509 179.005 212.613 181.105 206.078 184.004C198.454 187.404 192.736 191.903 185.565 194.902C181.753 196.102 177.487 197.302 172.858 198.102C160.514 200.601 145.357 201.101 128.384 196.702Z" fill="#C0B1FF" fill-opacity="0.5"/>
<path d="M155.137 41.2447C160.481 26.55 174.374 17.7332 189.069 18.0004C192.542 18.0004 196.282 18.8019 199.756 20.1378C210.443 23.8783 218.191 32.4279 221.397 42.5806C223.534 49.5271 223.534 57.2752 220.863 64.7561C220.595 65.5577 220.328 66.092 220.061 66.8935C218.725 70.0996 216.855 73.0386 214.718 75.7103C205.634 86.3974 190.405 90.9393 176.244 85.863C158.076 79.4508 148.458 59.4126 155.137 41.2447ZM179.183 77.5806C189.87 81.321 201.092 77.8477 208.038 69.8325C209.641 67.9622 210.977 65.8248 212.046 63.4203C212.313 62.8859 212.58 62.3516 212.58 61.8172C214.45 56.2065 214.45 50.3287 212.847 45.2523C210.443 37.7714 204.832 31.3592 196.55 28.4203C193.878 27.3516 191.206 27.0844 188.534 26.8172C177.58 26.55 166.893 33.2294 163.153 44.1836C158.344 57.8096 165.557 72.7714 179.183 77.5806Z" fill="white"/>
<path d="M213.115 45.2519L221.397 42.5802C218.191 32.4275 210.443 23.8779 199.756 20.1374C196.282 18.8015 192.542 18 189.069 18L188.802 26.8168C191.473 26.8168 194.145 27.3511 196.817 28.4198C204.832 31.0916 210.71 37.5038 213.115 45.2519Z" fill="#662ABC"/>
<path d="M212.046 63.4201L220.061 66.8934C220.328 66.0919 220.595 65.5575 220.863 64.756C223.534 57.2751 223.534 49.527 221.397 42.5804L213.115 45.2522C214.718 50.5957 214.718 56.2064 212.847 61.8171C212.58 62.3514 212.313 62.8858 212.046 63.4201Z" fill="#9150FF"/>
<path d="M214.718 75.7099C216.855 73.0381 218.725 70.0992 220.061 66.8931L212.046 63.4198C210.977 65.8244 209.641 67.9618 208.038 69.832L214.718 75.7099Z" fill="#00C6BC"/>
<line x1="219" y1="37.5" x2="265" y2="37.5" stroke="#662ABC"/>
<line x1="219" y1="59.5" x2="265" y2="59.5" stroke="#9150FF"/>
<line x1="215" y1="73.5" x2="265" y2="73.5" stroke="#00C6BC"/>
<line x1="204" y1="89.5" x2="265" y2="89.5" stroke="white"/>
<line x1="203.5" y1="90" x2="203.5" y2="83" stroke="white"/>
<path d="M213.9 104H316.2C317.8 104 319 105.3 319 106.8V121.1C319 122.7 317.7 123.9 316.2 123.9H213.9C212.3 123.9 211.1 122.6 211.1 121.1V106.8C211 105.2 212.3 104 213.9 104Z" fill="white"/>
<path d="M221.1 116C222.205 116 223.1 115.105 223.1 114C223.1 112.895 222.205 112 221.1 112C219.995 112 219.1 112.895 219.1 114C219.1 115.105 219.995 116 221.1 116Z" fill="#00C6BC"/>
<path d="M243.1 116C244.205 116 245.1 115.105 245.1 114C245.1 112.895 244.205 112 243.1 112C241.995 112 241.1 112.895 241.1 114C241.1 115.105 241.995 116 243.1 116Z" fill="#00C6BC"/>
<path d="M265 116C266.105 116 267 115.105 267 114C267 112.895 266.105 112 265 112C263.895 112 263 112.895 263 114C263 115.105 263.895 116 265 116Z" fill="#00C6BC"/>
<path d="M287 116C288.105 116 289 115.105 289 114C289 112.895 288.105 112 287 112C285.895 112 285 112.895 285 114C285 115.105 285.895 116 287 116Z" fill="#00C6BC"/>
<path d="M308.9 116C310.005 116 310.9 115.105 310.9 114C310.9 112.895 310.005 112 308.9 112C307.795 112 306.9 112.895 306.9 114C306.9 115.105 307.795 116 308.9 116Z" fill="#00C6BC"/>
<path d="M47.2859 47H120.894C121.539 47 122.112 47.8321 122.112 48.7683V58.962C122.112 59.8982 121.539 60.7303 120.894 60.7303H47.2859C46.6408 60.7303 46.0674 59.8982 46.0674 58.962V48.7683C46.0674 47.7281 46.5691 47 47.2859 47Z" fill="white"/>
<path d="M47.2859 63.8989H120.894C121.539 63.8989 122.112 64.7311 122.112 65.6672V75.861C122.112 76.7971 121.539 77.6293 120.894 77.6293H47.2859C46.6408 77.6293 46.0674 76.7971 46.0674 75.861V65.7712C46.0674 64.7311 46.5691 63.8989 47.2859 63.8989Z" fill="white"/>
<path d="M47.2859 79.7416H120.894C121.539 79.7416 122.112 80.5737 122.112 81.5099V91.7036C122.112 92.6398 121.539 93.4719 120.894 93.4719H47.2859C46.6408 93.4719 46.0674 92.6398 46.0674 91.7036V81.5099C46.0674 80.5737 46.5691 79.7416 47.2859 79.7416Z" fill="white"/>
<path d="M28.1124 47H41.3146C42.4764 47 43.427 47.9506 43.427 49.1124V58.8292C43.427 59.991 42.4764 60.9416 41.3146 60.9416H28.1124C26.9506 60.9416 26 59.991 26 58.8292V49.1124C26 47.9506 26.9506 47 28.1124 47Z" fill="white"/>
<path d="M27.7955 63.476H41.6315C42.582 63.476 43.427 64.3209 43.427 65.2715V75.622C43.427 76.5726 42.582 77.4175 41.6315 77.4175H27.7955C26.8449 77.4175 26 76.5726 26 75.622V65.3771C26 64.3209 26.8449 63.476 27.7955 63.476Z" fill="white"/>
<path d="M27.5843 80.0582H41.1034C42.3708 80.0582 43.427 81.1144 43.427 82.3818V92.4155C43.427 93.3661 42.6876 93.9998 41.8427 93.9998H27.5843C26.6337 93.9998 26 93.2605 26 92.4155V81.6425C26 80.7976 26.7393 80.0582 27.5843 80.0582Z" fill="white"/>
<path d="M110.917 52.5975H50.8202V55.8717H110.917V52.5975Z" fill="#DCD4FF"/>
<path d="M110.917 69.1798H50.8202V72.454H110.917V69.1798Z" fill="#DCD4FF"/>
<path d="M110.917 85.6558H50.8202V88.9299H110.917V85.6558Z" fill="#DCD4FF"/>
<path d="M34.4495 56.4C35.7328 56.4 36.7731 55.3597 36.7731 54.0764C36.7731 52.7931 35.7328 51.7528 34.4495 51.7528C33.1662 51.7528 32.1259 52.7931 32.1259 54.0764C32.1259 55.3597 33.1662 56.4 34.4495 56.4Z" fill="#00C6BC"/>
<path d="M34.4495 72.9823C35.7328 72.9823 36.7731 71.942 36.7731 70.6587C36.7731 69.3754 35.7328 68.3351 34.4495 68.3351C33.1662 68.3351 32.1259 69.3754 32.1259 70.6587C32.1259 71.942 33.1662 72.9823 34.4495 72.9823Z" fill="#00C6BC"/>
<path d="M34.4495 89.5644C35.7328 89.5644 36.7731 88.5241 36.7731 87.2408C36.7731 85.9575 35.7328 84.9172 34.4495 84.9172C33.1662 84.9172 32.1259 85.9575 32.1259 87.2408C32.1259 88.5241 33.1662 89.5644 34.4495 89.5644Z" fill="#00C6BC"/>
<path d="M188.5 180.8H44.7C42.7 180.8 41 179.1 41 177.1V107.7C41 105.7 42.7 104 44.7 104H188.5C190.5 104 192.2 105.7 192.2 107.7V177.1C192.2 179.1 190.6 180.8 188.5 180.8Z" fill="white"/>
<path d="M49.7489 121.804C49.7489 121.202 49.8468 120.8 49.9938 120.8H61.455C61.6019 120.8 61.6999 121.302 61.6999 121.804V167.8H49.6999V121.804H49.7489Z" fill="#9150FF"/>
<path d="M62.7489 129.634C62.7489 129.134 62.8468 128.8 62.9938 128.8H74.455C74.6019 128.8 74.6999 129.217 74.6999 129.634V167.8H62.6999V129.634H62.7489Z" fill="#00C6BC"/>
<path d="M76.7489 141.687C76.7489 141.194 76.8468 140.8 76.9938 140.8H88.455C88.6019 140.8 88.6999 141.194 88.6999 141.687V167.8H76.6999V141.687H76.7489Z" fill="#9150FF"/>
<path d="M89.7489 145.556C89.7489 145.136 89.8468 144.8 89.9938 144.8H101.455C101.602 144.8 101.7 145.136 101.7 145.556V167.8H89.6999V145.556H89.7489Z" fill="#00C6BC"/>
<path d="M103.749 130.785C103.749 130.292 103.847 129.8 103.994 129.8H115.455C115.602 129.8 115.7 130.194 115.7 130.785V167.8H103.7V130.785H103.749Z" fill="#9150FF"/>
<path d="M116.749 136.629C116.749 136.215 116.847 135.8 116.994 135.8H128.455C128.602 135.8 128.7 136.132 128.7 136.629V167.8H116.7V136.629H116.749Z" fill="#00C6BC"/>
<path d="M130.749 147.781C130.749 147.291 130.847 146.8 130.994 146.8H142.455C142.602 146.8 142.7 147.193 142.7 147.781V167.8H130.7V147.781H130.749Z" fill="#9150FF"/>
<path d="M143.749 151.595C143.749 151.197 143.847 150.8 143.994 150.8H155.455C155.602 150.8 155.7 151.118 155.7 151.595V167.8H143.7V151.595H143.749Z" fill="#00C6BC"/>
<path d="M157.749 139.685C157.749 139.193 157.847 138.8 157.994 138.8H169.455C169.602 138.8 169.7 139.193 169.7 139.685V167.8H157.7V139.685H157.749Z" fill="#9150FF"/>
<path d="M170.749 147.441C170.749 147.085 170.847 146.8 170.994 146.8H182.455C182.602 146.8 182.7 147.085 182.7 147.441V167.8H170.7V147.441H170.749Z" fill="#00C6BC"/>
<path d="M74.4 170H49.9V172H74.4V170Z" fill="#DCD4FF"/>
<path d="M101.6 170H77.1V172H101.6V170Z" fill="#DCD4FF"/>
<path d="M127.7 170H103.2V172H127.7V170Z" fill="#DCD4FF"/>
<path d="M154.9 170H130.4V172H154.9V170Z" fill="#DCD4FF"/>
<path d="M182.7 169.8H157.7V171.8H182.7V169.8Z" fill="#DCD4FF"/>
<path d="M56.4 111.6H49.9V113.4H56.4V111.6Z" fill="#DCD4FF"/>
<path d="M59.1 114.9H49.9V116.7H59.1V114.9Z" fill="#DCD4FF"/>
<path d="M84.4 111.6H76.8V113.4H84.4V111.6Z" fill="#DCD4FF"/>
<path d="M81.7 114.9H76.8V116.7H81.7V114.9Z" fill="#DCD4FF"/>
<path d="M109.2 111.6H104.5V113.4H109.2V111.6Z" fill="#DCD4FF"/>
<path d="M110 114.9H104.5V116.7H110V114.9Z" fill="#DCD4FF"/>
<path d="M138.5 111.6H131.6V113.4H138.5V111.6Z" fill="#DCD4FF"/>
<path d="M137.1 114.9H131.6V116.7H137.1V114.9Z" fill="#DCD4FF"/>
<path d="M165.4 111.6H158.5V113.4H165.4V111.6Z" fill="#DCD4FF"/>
<path d="M164 114.9H158.5V116.7H164V114.9Z" fill="#DCD4FF"/>
<path d="M302.7 167.3C293.3 167.3 285.7 159.7 285.7 150.3C285.7 140.9 293.3 133.3 302.7 133.3C312.1 133.3 319.7 140.9 319.7 150.3C319.7 159.7 312.1 167.3 302.7 167.3ZM302.7 136.7C295.2 136.7 289.1 142.8 289.1 150.3C289.1 157.8 295.2 163.9 302.7 163.9C310.2 163.9 316.3 157.8 316.3 150.3C316.3 142.8 310.2 136.7 302.7 136.7Z" fill="#662ABC"/>
<path d="M274.7 137.7H228.3V141.8H274.7V137.7Z" fill="white"/>
<path d="M274.7 148.3H235.1V152.4H274.7V148.3Z" fill="white"/>
<path d="M274.7 158.8H211V162.9H274.7V158.8Z" fill="white"/>
<path d="M240.134 83.624H265V86.999H240.134V83.624Z" fill="white"/>
<path d="M240 54H264.866V57.375H240V54Z" fill="#9150FF"/>
<path d="M240 68H264.866V71.375H240V68Z" fill="#00C6BC"/>
<path d="M240 32H264.866V35.375H240V32Z" fill="#662ABC"/>
</svg>
