<svg width="289" height="219" viewBox="0 0 289 219" fill="none" xmlns="http://www.w3.org/2000/svg">
<g clip-path="url(#clip0)">
<path d="M286.65 114.379C283.312 124.508 275.892 135.13 263.154 145.382C258.579 149.088 254.745 153.041 251.407 157.117C246.46 163.169 242.75 169.592 239.288 175.768C223.582 204.425 215.915 229.993 142.46 209.736C113.275 201.707 107.216 212.33 75.558 217.641C74.5687 217.765 73.703 218.012 72.7137 218.135C63.9337 219.494 56.1429 219.247 49.2178 217.888C40.4377 216.036 33.1416 212.33 26.9585 207.266C14.9632 197.014 7.54344 181.574 3.70989 165.393C2.22594 159.464 1.23664 153.411 0.741985 147.482C0.370997 144.147 0.247334 140.936 0.123671 137.971C-0.123655 127.472 1.23664 119.196 3.3389 112.279C3.58623 111.415 3.95722 110.55 4.20454 109.809C4.57553 108.944 4.82286 108.08 5.19385 107.215C13.6029 87.2048 29.6791 80.4112 29.9264 61.1422C30.6684 10.2522 69.1275 1.4823 99.5486 7.41123C164.101 20.0102 162.122 -5.80535 208.496 1.23526C293.328 14.2048 234.712 47.8021 270.327 68.3063C284.548 76.4586 293.452 94.3689 286.65 114.379Z" fill="#C0B1FF" fill-opacity="0.5"/>
<path d="M286.65 114.379C283.311 124.508 275.892 135.13 263.154 145.382C220.367 179.844 242.503 237.404 142.46 209.86C112.41 201.584 106.845 213.071 72.7137 218.259C22.754 225.794 4.20454 184.044 0.618323 147.606C-0.989293 130.931 0.741986 119.073 4.20455 109.932L5.19385 107.338C5.19385 107.338 16.3235 106.227 20.4044 115.738C20.4044 115.738 23.9906 109.809 30.9157 111.909C37.8408 114.009 36.3569 119.567 36.3569 119.567C36.3569 119.567 46.9919 112.156 56.5139 121.914C66.0359 131.672 60.3475 145.506 60.3475 145.506C60.3475 145.506 69.2512 144.888 71.9718 151.682C71.9718 151.682 84.709 146.124 92.7471 153.535C100.785 160.946 109.194 167.74 109.194 167.74C109.194 167.74 118.345 170.086 117.603 181.327C117.603 181.327 124.281 176.262 133.68 178.856C133.68 178.856 135.287 167.245 151.24 164.652C167.192 162.181 174.488 166.381 174.488 166.381C174.488 166.381 174.736 155.758 187.102 154.646C187.102 154.646 186.731 138.218 205.033 136.366C223.335 134.636 227.169 144.271 227.169 144.271C227.169 144.271 229.518 136.613 241.884 137.107C241.884 137.107 244.358 123.025 260.434 123.643C260.434 123.643 264.267 116.602 272.305 118.949C272.305 119.073 277.994 109.438 286.65 114.379Z" fill="#EBE6FF"/>
<path d="M251.407 157.117C223.83 191.208 231.744 234.44 142.46 209.736C112.409 201.46 106.845 212.948 72.7137 218.135C22.754 225.67 4.20453 183.92 0.618312 147.482C-0.865642 132.413 0.494649 121.173 3.33889 112.403C3.33889 112.403 12.6136 117.22 12.2426 124.878C12.2426 124.878 21.1463 122.037 28.1951 128.213C28.1951 128.213 38.4591 120.555 52.1857 128.213C65.9123 135.871 57.6269 151.682 57.6269 151.682C57.6269 151.682 65.294 152.052 67.1489 159.711C67.1489 159.711 77.0419 153.782 83.4724 161.934C89.9029 170.086 84.0907 182.932 73.332 186.02C75.6816 185.403 85.822 183.55 91.2632 192.196C91.2632 192.196 100.291 182.932 109.689 192.196C109.689 192.196 120.077 188.861 124.405 198.002C124.405 198.002 130.588 187.008 143.449 190.961C156.31 195.037 156.681 204.178 156.681 204.178C156.681 204.178 160.02 197.508 168.552 199.36C168.552 199.36 165.337 183.426 182.155 179.474C182.155 179.474 183.763 166.504 198.232 167.616C198.232 167.616 203.796 161.687 210.227 163.293C209.979 163.169 229.271 143.283 251.407 157.117Z" fill="white"/>
<path d="M195.14 41.8733C195.14 41.8733 191.677 38.4147 185.371 41.0086C179.064 43.6025 180.919 50.6431 175.972 48.9139C171.026 47.1846 166.203 47.4316 165.708 51.7548C165.09 58.0543 162.122 55.7074 160.143 61.3893C158.412 66.4536 160.391 68.8005 164.101 67.1947C169.418 64.9714 165.337 70.5298 172.881 71.6414C180.424 72.6296 189.575 66.2066 190.935 61.7599C192.296 57.3132 194.398 54.9663 196.006 53.1135C197.737 51.3843 199.839 45.4553 195.14 41.8733Z" fill="#340E70"/>
<path d="M156.681 88.5636L156.557 90.0458C156.557 90.4164 156.681 90.7869 157.052 91.034L159.278 92.3927C159.649 92.6397 160.267 92.7633 160.638 92.6397L162.74 92.1457L156.681 88.5636Z" fill="#340E70"/>
<path d="M176.961 95.8512L170.036 91.8986C169.418 91.528 169.171 90.6634 169.542 90.0458L183.145 66.4535C184.505 64.1067 188.833 60.8952 191.183 62.2539L191.925 62.6244C194.274 63.9832 193.78 69.418 192.419 71.7649L178.816 95.3571C178.445 95.9747 177.58 96.2217 176.961 95.8512Z" fill="#E75724"/>
<path d="M177.209 58.5482L193.532 58.6717L171.273 94.3689L162.369 91.8985L177.209 58.5482Z" fill="#00C6BC"/>
<path d="M162.864 92.1456L155.939 88.193C155.32 87.8224 155.073 86.9578 155.444 86.3402L169.047 62.748C170.407 60.4011 174.736 57.1896 177.085 58.5483L177.827 58.9189C180.177 60.2776 179.682 65.7124 178.322 68.0593L164.719 91.6515C164.348 92.2691 163.482 92.5162 162.864 92.1456Z" fill="#00A599"/>
<path d="M159.278 92.3927L159.154 92.5162L158.288 93.8749L75.6816 217.641C74.6923 217.765 73.8267 218.012 72.8374 218.136C64.0573 219.494 56.2666 219.247 49.3415 217.888C40.5614 216.036 33.2653 212.33 27.0822 207.266L58.3688 179.35L111.791 131.548L122.179 122.284L157.052 91.034L158.288 91.7751L159.278 92.3927Z" fill="white"/>
<path d="M179.806 127.966C179.806 127.966 176.096 128.46 172.262 131.548C170.284 133.154 167.687 134.883 166.945 134.142C166.574 133.772 166.45 131.301 169.047 129.572C171.644 127.843 171.026 124.261 173.499 123.767C175.23 123.519 175.107 125.249 179.311 123.643L179.806 127.966Z" fill="#340E70"/>
<path d="M206.146 117.714C205.404 124.137 177.209 129.325 177.209 129.325C177.209 129.325 176.343 125.496 178.693 123.643C178.693 123.643 185.123 118.949 188.091 117.097C191.677 114.873 194.274 114.626 194.274 114.626C194.274 114.379 193.161 114.009 191.677 113.514C186.978 112.032 177.209 109.438 176.59 105.98C176.59 105.609 176.467 105.362 176.467 104.992C176.59 100.174 182.897 92.2691 182.897 92.2691L189.08 90.1693C189.08 90.1693 189.946 96.9629 192.048 98.5686C194.274 100.174 206.888 111.291 206.146 117.714Z" fill="#662ABC"/>
<path d="M191.677 113.514C186.855 112.032 177.209 109.438 176.59 105.98C176.59 105.609 176.467 105.362 176.467 104.992C177.085 103.633 178.198 102.398 179.558 101.904C182.403 101.039 182.032 107.462 185.123 109.315C188.462 111.291 191.677 113.514 191.677 113.514Z" fill="#340E70"/>
<path d="M195.882 60.1541C195.882 60.1541 212.453 55.4604 214.802 54.4722C217.276 53.3605 225.066 43.2319 225.066 43.2319L227.292 44.5906C227.292 44.5906 224.819 54.1016 217.77 59.0424C215.05 61.0187 199.468 67.0712 199.468 67.0712L195.882 60.1541Z" fill="#FFB27D"/>
<path d="M140.852 141.677C140.852 141.677 138.379 144.271 137.389 146.618C136.4 149.088 134.916 151.806 134.05 151.435C133.556 151.311 132.196 149.212 133.679 146.371C135.163 143.653 132.814 140.812 134.792 139.207C136.153 138.095 136.895 139.701 139.739 136.242L140.852 141.677Z" fill="#340E70"/>
<path d="M190.07 92.6397C190.07 92.6397 172.386 115.12 164.595 122.037C160.514 125.743 140.976 142.048 140.976 142.048C140.976 142.048 139.615 140.689 139.244 139.577C138.379 137.354 139.121 135.872 139.121 135.872C139.121 135.872 147.406 119.69 155.321 114.997C160.762 111.785 164.101 91.5281 175.849 84.611C187.596 77.6939 190.07 92.6397 190.07 92.6397Z" fill="#662ABC"/>
<path d="M199.468 78.4348C193.903 89.7986 192.543 95.1099 190.564 96.2216C188.586 97.3333 169.789 94.6158 168.181 91.7749C167.81 91.0338 167.934 90.1691 168.429 89.3045C169.789 86.7106 173.746 83.4991 175.725 80.2876C177.085 78.1877 178.074 76.3349 178.693 74.7292C182.155 66.824 179.311 64.6006 181.042 63.4889C184.01 61.6361 197.737 57.6835 202.065 59.1657C204.167 59.9069 201.447 64.23 201.694 67.8121C201.941 72.2588 201.199 74.8527 199.468 78.4348Z" fill="white"/>
<path d="M180.177 63.9832C180.177 63.9832 167.563 72.6295 164.843 77.0762C162.122 81.5229 158.041 92.1456 158.041 92.1456C158.041 92.1456 158.165 92.7632 160.514 92.3926C160.514 92.3926 168.429 80.6583 169.665 79.4231C170.902 78.1879 181.908 72.259 181.908 72.259L180.177 63.9832Z" fill="#FFB27D"/>
<path d="M205.775 63.242C205.157 64.8477 204.044 66.824 201.694 68.8004L195.758 59.2893C195.758 59.2893 202.065 58.3012 205.528 57.5601C205.528 57.4366 207.012 59.7834 205.775 63.242Z" fill="white"/>
<path d="M189.946 60.2776C189.946 60.2776 184.01 61.1422 179.435 63.7361C177.58 64.8478 172.633 69.0475 172.633 69.0475C172.633 69.0475 173.994 73.4942 179.558 74.8529C185.123 76.2116 184.01 65.4654 184.01 65.4654L189.946 60.2776Z" fill="white"/>
<path d="M224.943 43.3554C224.943 43.3554 225.808 38.0441 226.921 38.0441C228.034 38.1676 228.9 39.8969 229.024 40.885C229.147 41.8732 227.169 44.5906 227.169 44.5906L224.943 43.3554Z" fill="#FFB27D"/>
<path d="M161.009 92.8867C161.009 92.8867 161.504 95.3571 161.009 96.3453C160.638 97.3334 159.525 98.0745 158.783 98.0745C158.041 98.0745 159.278 96.2217 158.783 95.2336C158.288 94.2454 157.423 92.0221 158.907 91.528C160.267 90.9104 161.009 92.8867 161.009 92.8867Z" fill="#FFB27D"/>
<path d="M160.762 92.0221C160.762 92.0221 161.38 93.6278 161.627 94.1219C161.998 94.616 160.762 93.8749 160.391 93.3808C160.02 92.8867 160.762 92.0221 160.762 92.0221Z" fill="#FFAE73"/>
<path d="M180.3 76.7057C180.177 79.2996 177.456 84.4874 174.365 85.4755C171.273 86.4637 168.429 89.1811 168.429 89.3046C169.789 86.7107 173.746 83.4992 175.725 80.2877C177.085 78.1879 178.074 76.3351 178.693 74.7293C179.435 74.4823 180.424 74.8529 180.3 76.7057Z" fill="#EBE6FF"/>
<path d="M185.371 70.1591C183.763 75.0999 179.187 77.0762 177.332 77.6938C176.961 77.8173 176.714 77.9408 176.591 77.9408L176.096 75.7175C176.096 75.7175 176.714 75.594 177.58 75.2234C179.311 74.4823 182.155 72.753 183.268 69.5415C184.752 64.9713 180.919 61.8833 180.424 61.5127C181.413 61.2657 182.279 61.0187 183.145 60.8951C184.876 62.7479 186.731 66.2065 185.371 70.1591Z" fill="#00C6BC"/>
<path d="M194.027 60.1541C194.027 60.1541 200.334 61.0187 201.818 68.6769C201.818 68.6769 203.178 68.1828 203.549 66.9476C203.549 66.9476 201.818 60.1541 195.14 58.9189C194.769 58.7954 193.161 58.4248 193.161 58.4248V58.7954C193.161 58.7954 193.161 59.66 193.285 59.7835C193.161 60.0306 194.027 60.1541 194.027 60.1541Z" fill="#00C6BC"/>
<path d="M186.978 60.7716C187.473 59.4129 187.967 57.5601 187.967 55.0897L188.338 55.2132L194.274 56.572C194.274 56.572 194.027 58.4248 194.027 60.154C193.78 65.7124 186.484 61.8833 186.978 60.7716Z" fill="#FFB27D"/>
<path d="M194.274 56.5718C194.274 56.5718 194.274 56.5718 194.151 58.4246C190.812 58.1776 189.08 56.9424 188.338 55.2131L194.274 56.5718Z" fill="#F48F4E"/>
<path d="M195.635 56.4484C195.635 56.4484 187.967 58.4248 186.855 53.6075C185.742 48.7902 184.01 45.8258 188.833 44.3435C193.656 42.8613 195.016 44.4671 195.882 46.0728C196.624 47.555 197.613 55.8308 195.635 56.4484Z" fill="#FFB27D"/>
<path d="M192.296 43.479C192.296 43.479 191.554 49.655 188.462 51.1372C185.371 52.7429 183.763 52.2489 183.763 52.2489C183.763 52.2489 185.742 49.655 185.494 46.1964C185.618 46.1964 190.07 41.2556 192.296 43.479Z" fill="#340E70"/>
<path d="M191.925 44.0966C191.925 44.0966 193.656 44.3436 194.522 45.3318C195.387 46.3199 196.253 47.6786 196.624 49.5314C196.624 49.5314 197.366 45.3318 195.016 43.6025C192.543 41.6262 191.925 44.0966 191.925 44.0966Z" fill="#340E70"/>
<path d="M75.6816 105.609L75.4343 106.721L74.3213 111.538L70.9824 125.866L64.7993 152.176L58.4925 179.227L49.4651 217.888C40.685 216.036 33.3889 212.33 27.2058 207.266C14.9632 197.014 7.54342 181.574 3.70987 165.393L70.9824 103.139L73.0847 104.25L73.332 104.374L75.3106 105.362L75.6816 105.609Z" fill="white"/>
<path d="M103.258 154.523C103.258 154.523 98.6829 155.758 94.4784 160.328C92.2524 162.799 89.2845 165.269 88.2952 164.404C87.8006 164.034 87.1823 160.946 90.2738 158.352C93.2417 155.758 91.8814 151.435 94.973 150.447C97.0753 149.829 97.3226 151.929 102.145 149.335L103.258 154.523Z" fill="#340E70"/>
<path d="M127.373 134.266C127.125 141.553 101.651 157.487 101.651 157.487C101.651 157.487 98.9302 155.882 98.9302 149.953C98.9302 149.953 107.216 138.218 112.286 134.266C113.151 133.648 113.151 132.413 110.926 130.807C110.307 130.313 109.442 129.819 108.452 129.325C108.452 129.325 98.8066 124.631 92.7471 120.678C91.6341 119.937 90.6448 119.196 89.9029 118.579C89.6555 118.332 100.909 105.362 100.909 105.362L107.958 102.892C107.958 102.892 110.555 107.338 112.533 110.179C114.388 112.65 127.62 126.36 127.373 134.266Z" fill="#662ABC"/>
<path d="M111.049 130.807C110.431 130.313 109.565 129.819 108.576 129.325C108.576 129.325 98.9302 124.631 92.8708 120.679C93.7364 118.826 95.2204 116.355 97.4463 115.861C101.156 114.873 100.909 121.42 103.011 123.89C104.99 126.36 110.926 130.684 111.049 130.807Z" fill="#340E70"/>
<path d="M71.1061 101.039L70.9824 102.645C70.9824 103.139 71.1061 103.509 71.6007 103.756L74.1977 105.239C74.6923 105.486 75.3106 105.609 75.8053 105.486L78.2785 104.991L71.1061 101.039Z" fill="#340E70"/>
<path d="M94.1074 109.315L86.193 104.745C85.451 104.374 85.2037 103.386 85.5746 102.645L101.033 75.7176C102.516 73.0001 107.587 69.4181 110.307 71.0238L111.049 71.5179C113.77 73.0001 113.151 79.1761 111.544 81.8935L96.2097 108.821C95.8387 109.438 94.8494 109.685 94.1074 109.315Z" fill="#E75724"/>
<path d="M94.3547 66.8242L111.668 67.3183L88.2953 108.203L78.1549 105.239L94.3547 66.8242Z" fill="#00C6BC"/>
<path d="M78.0312 105.115L70.1168 100.545C69.3748 100.174 69.1275 99.1862 69.4985 98.4451L84.9563 71.5179C86.4403 68.8004 91.5105 65.2184 94.2311 66.8241L94.973 67.3182C97.6936 68.8004 97.0753 74.9764 95.4677 77.6938L80.1335 104.498C79.7625 105.239 78.7732 105.486 78.0312 105.115Z" fill="#00A599"/>
<path d="M115.625 68.6769C115.625 68.6769 134.421 63.3655 137.142 62.1303C139.863 60.8951 148.766 49.2843 148.766 49.2843L151.363 50.7665C151.363 50.7665 148.519 61.6362 140.481 67.1946C137.389 69.418 119.706 76.3351 119.706 76.3351L115.625 68.6769Z" fill="#FFB27D"/>
<path d="M53.4223 161.316C53.4223 161.316 50.3308 164.528 49.0941 167.616C47.8575 170.704 46.0026 174.162 44.8896 173.668C44.2713 173.421 42.6637 170.951 44.5186 167.369C46.3735 163.91 43.4056 160.328 46.0026 158.352C47.7338 156.993 48.7231 158.97 52.3094 154.646L53.4223 161.316Z" fill="#340E70"/>
<path d="M109.071 105.609C109.071 105.609 88.9136 131.178 80.1335 139.083C75.4343 143.283 53.175 161.811 53.175 161.811C53.175 161.811 51.691 160.328 51.1964 158.97C50.3308 156.376 51.0727 154.77 51.0727 154.77C51.0727 154.77 62.0787 134.883 69.4985 127.472C75.558 121.42 79.6388 104.25 92.9944 96.3452C106.35 88.687 109.071 105.609 109.071 105.609Z" fill="#662ABC"/>
<path d="M119.335 92.8866C114.388 106.35 112.78 110.426 110.307 110.797C90.2738 113.761 84.2144 109.809 82.3594 106.597C81.8648 105.733 83.1014 103.509 84.4617 101.78C85.9457 98.8155 90.3975 95.2335 92.7471 91.5279C94.2311 89.0575 95.344 86.9577 96.2097 85.1049C100.167 76.088 96.9516 73.4941 98.8066 72.3824C102.145 70.2825 117.851 65.7123 122.797 67.4416C125.27 68.3062 122.179 73.247 122.303 77.3232C122.674 82.511 121.066 87.9458 119.335 92.8866Z" fill="white"/>
<path d="M97.8173 73.0001C97.8173 73.0001 83.4724 82.7582 80.3808 87.946C77.2892 93.1338 72.7137 104.992 72.7137 104.992C72.7137 104.992 72.8374 105.733 75.558 105.362C75.558 105.362 84.4617 91.8986 85.9456 90.5399C87.3059 89.1812 99.7959 82.3876 99.7959 82.3876L97.8173 73.0001Z" fill="#FFB27D"/>
<path d="M127.002 72.1355C126.383 73.9883 125.023 76.2117 122.426 78.435L115.625 67.5653C115.625 67.5653 122.797 66.4536 126.754 65.589C126.631 65.589 128.362 68.3064 127.002 72.1355Z" fill="white"/>
<path d="M108.823 68.8004C108.823 68.8004 102.022 69.7886 96.828 72.753C94.7257 73.9882 89.1609 78.8055 89.1609 78.8055C89.1609 78.8055 90.7685 83.8698 97.0753 85.352C103.382 86.8343 102.022 74.7293 102.022 74.7293L108.823 68.8004Z" fill="white"/>
<path d="M148.766 49.5313C148.766 49.5313 149.756 43.4789 151.116 43.4789C152.353 43.6024 153.342 45.5787 153.589 46.6904C153.713 47.8021 151.363 50.8901 151.363 50.8901L148.766 49.5313Z" fill="#FFB27D"/>
<path d="M75.9289 105.856C75.9289 105.856 76.4236 108.697 75.9289 109.809C75.4343 110.921 74.1977 111.785 73.332 111.785C72.4664 111.662 73.9503 109.685 73.332 108.574C72.7137 107.462 71.7244 104.992 73.4557 104.374C75.187 103.633 75.9289 105.856 75.9289 105.856Z" fill="#FFB27D"/>
<path d="M75.6816 104.992C75.6816 104.992 76.2999 106.721 76.6709 107.338C77.0419 107.956 75.6816 107.091 75.3106 106.474C74.9396 105.856 75.6816 104.992 75.6816 104.992Z" fill="#FFAE73"/>
<path d="M97.9409 87.4517C97.8173 90.4162 94.7257 96.3451 91.1395 97.4568C87.6769 98.5685 84.4617 101.656 84.338 101.78C85.822 98.8155 90.2738 95.2335 92.6234 91.5279C94.1074 89.0575 95.2203 86.9577 96.086 85.1049C96.9516 84.9813 98.0646 85.3519 97.9409 87.4517Z" fill="#EBE6FF"/>
<path d="M103.753 80.1641C101.898 85.846 96.7043 88.0694 94.602 88.687C94.1074 88.8105 93.8601 88.934 93.7364 88.934H93.6127L92.9944 86.3401C92.9944 86.3401 93.7364 86.2166 94.7257 85.7225C96.7043 84.8579 99.9195 83.0051 101.156 79.176C102.887 73.9882 98.4356 70.4061 97.9409 69.912C99.0539 69.665 100.043 69.4179 101.032 69.1709C103.258 71.6413 105.237 75.5939 103.753 80.1641Z" fill="#00C6BC"/>
<path d="M113.522 68.6769C113.522 68.6769 120.695 69.665 122.426 78.4349C122.426 78.4349 124.034 77.8173 124.405 76.4586C124.405 76.4586 122.426 68.6769 114.883 67.3182C114.388 67.1947 112.657 66.8241 112.657 66.8241L112.533 67.1947C112.533 67.1947 112.533 68.1828 112.657 68.3063C112.533 68.4299 113.522 68.6769 113.522 68.6769Z" fill="#00C6BC"/>
<path d="M105.484 69.4179C106.103 67.9357 106.597 65.7123 106.597 62.9949L106.968 63.1184L113.77 64.7241C113.77 64.7241 113.522 66.824 113.522 68.9238C113.275 74.9763 104.99 70.6531 105.484 69.4179Z" fill="#FFB27D"/>
<path d="M113.77 64.6006C113.77 64.6006 113.77 64.6006 113.646 66.7005C109.813 66.4534 107.834 64.9712 107.092 62.9949L113.77 64.6006Z" fill="#F48F4E"/>
<path d="M116.738 63.983C116.738 63.983 108.576 67.565 106.35 62.5007C104.248 57.4364 101.651 54.472 106.845 52.0016C112.039 49.5312 113.893 51.0134 115.006 52.4957C116.119 54.1014 118.84 62.8713 116.738 63.983Z" fill="#FFB27D"/>
<path d="M100.662 52.8662C100.538 52.7427 100.414 52.7427 99.9196 52.8662C99.9196 52.8662 100.167 52.6192 100.662 52.4957C100.662 51.8781 100.662 50.8899 101.527 50.3959C101.527 50.3959 101.033 50.7664 101.156 51.384C102.022 50.0253 104.124 48.5431 110.802 47.4314C119.582 45.9492 118.222 52.1251 117.232 53.1133C116.243 54.1014 113.028 52.9898 110.926 53.6074C108.823 54.3485 109.194 57.4365 108.7 58.0541C108.081 58.6717 108.205 57.807 107.092 57.6835C105.979 57.4365 106.35 59.0422 106.845 60.0304C107.339 61.0185 106.474 62.6243 106.474 62.6243C106.474 62.6243 106.474 62.6243 104.742 61.5126C103.011 60.4009 100.291 54.719 100.538 53.2368C100.538 53.2368 100.538 53.1133 100.662 52.8662Z" fill="#340E70"/>
<path d="M239.288 175.768C223.582 204.425 215.915 229.993 142.46 209.736C113.275 201.707 107.216 212.33 75.558 217.641C74.5687 217.765 73.703 218.012 72.7137 218.135C63.9337 219.494 56.1429 219.247 49.2178 217.888C40.4377 216.035 33.1416 212.33 26.9585 207.266C14.9632 197.013 7.54343 181.574 3.70988 165.393C2.22593 159.464 1.23662 153.411 0.741971 147.482C0.370983 144.147 0.24732 140.936 0.123657 137.971C0.123657 137.971 14.8395 140.936 17.0655 152.917C17.0655 152.917 20.4044 151.558 23.6196 154.523C26.8348 157.364 24.1142 163.169 19.5387 164.034C19.5387 164.034 31.4104 165.393 29.8027 178.362C29.8027 178.362 36.6042 175.768 39.6958 182.562C39.6958 182.562 49.7125 172.927 63.439 179.103C77.1656 185.279 76.5473 196.519 76.5473 196.519C76.5473 196.519 82.9778 191.455 90.0265 195.655C97.0753 199.978 97.199 204.301 97.199 204.301C97.199 204.301 100.538 200.472 105.237 202.695C105.237 202.695 112.78 188.985 131.206 194.79C131.206 194.79 135.658 191.208 140.852 194.42C145.922 197.631 145.922 201.46 145.922 201.46C145.922 201.46 157.67 194.42 168.181 205.042C168.181 205.042 175.107 201.831 180.671 205.042C180.671 205.042 180.795 194.296 191.306 191.332C191.306 191.332 190.07 180.585 203.425 179.227C216.781 177.868 221.233 185.897 221.233 185.897C221.233 185.897 227.292 175.768 239.288 175.768Z" fill="#EBE6FF"/>
</g>
<defs>
<clipPath id="clip0">
<rect width="289" height="219" fill="white"/>
</clipPath>
</defs>
</svg>
